# xmcd
#
# Track frame offsets:
#	150
#	23321
#	50683
#	75793
#	93037
#	124384
#
# Disc length: 1967 seconds
#
# Revision: 0
# Processed by: cddbd v1.5.2PL0 Copyright (c) Steve Scherf et al.
# Submitted via: dBpowerAMP V4.0
#
DISCID=3507ad06
DTITLE=Just In Blues Band - Toxine
DYEAR=2016
DGENRE=Blues
TTITLE0=Waitin and lovin
TTITLE1=Free from misery
TTITLE2=Weary blues from waitin'
TTITLE3=Help me
TTITLE4=Love is only made for two
TTITLE5=Toxine
EXTD=
EXTT0=
EXTT1=
EXTT2=
EXTT3=
EXTT4=
EXTT5=
PLAYORDER=
